<svg width="349" height="349" viewBox="0 0 349 349" fill="none" xmlns="http://www.w3.org/2000/svg">
<path d="M258.609 44.009C258.609 44.009 282.655 60.3422 282.969 65.8913C283.283 71.4404 283.877 86.8313 286.983 89.6233C290.054 92.3804 295.917 97.0221 295.917 100.407C295.917 103.793 294.696 108.12 294.696 109.656C294.696 111.192 298.395 113.984 298.709 117.369C299.023 120.754 296.859 127.246 296.859 129.095C296.859 130.945 301.78 134.016 302.408 136.494C303.037 138.972 301.501 140.508 303.037 142.951C304.572 145.428 307.643 149.407 307.643 149.407C307.643 149.407 302.094 156.178 282.69 159.284C263.286 162.355 235.226 163.297 223.534 160.819C211.808 158.341 189.332 143.265 189.332 143.265C189.332 143.265 191.496 142.043 191.496 138.658C191.496 135.273 187.169 130.038 189.332 126.024C191.496 122.011 196.417 121.696 196.417 115.868C196.417 110.04 194.253 110.947 196.417 106.62C198.581 102.292 203.188 101.699 203.816 98.3134C204.444 94.9281 200.431 90.6005 202.909 85.3655C205.386 80.1305 210.621 76.4311 211.529 73.9532C212.436 71.4753 209.679 64.7047 212.75 60.6912C215.822 56.6777 237.111 44.358 244.195 42.8224C251.21 41.217 258.609 44.009 258.609 44.009Z" fill="#1A2E35" stroke="#1A2E35" stroke-miterlimit="10" stroke-linecap="round" stroke-linejoin="round"/>
<path d="M218.788 105.887C221.091 120.58 232.992 130.666 232.992 130.666V138.483L241.892 137.436L264.193 134.819V115.1C264.193 115.1 266.043 115.1 268.765 114.647C271.522 114.193 274.733 109.132 271.976 99.5C269.219 89.8676 264.158 101.315 264.158 101.315C264.158 101.315 262.343 101.768 255.887 89.379C249.465 76.9895 246.254 59.9932 246.254 59.9932L221.929 73.2901C221.999 73.325 216.485 91.1938 218.788 105.887Z" fill="white" stroke="#1A2E35" stroke-miterlimit="10" stroke-linecap="round" stroke-linejoin="round"/>
<path d="M229.712 86.7615C229.712 86.7615 231.212 91.0193 231.212 92.2757C231.212 93.5321 227.792 107.597 227.373 108.434C226.955 109.272 235.68 110.563 235.68 110.563" stroke="#1A2E35" stroke-miterlimit="10" stroke-linecap="round" stroke-linejoin="round"/>
<path d="M227.583 113.984C227.583 113.984 236.308 117.404 241.403 112.273" stroke="#1A2E35" stroke-miterlimit="10" stroke-linecap="round" stroke-linejoin="round"/>
<path d="M238.855 83.3762C238.855 83.3762 246.289 82.0849 250.128 86.7964" stroke="#1A2E35" stroke-miterlimit="10" stroke-linecap="round" stroke-linejoin="round"/>
<path d="M227.792 83.7949C227.792 83.7949 222.488 82.2942 220.359 85.7144" stroke="#1A2E35" stroke-miterlimit="10" stroke-linecap="round" stroke-linejoin="round"/>
<path d="M241.822 93.2528C241.822 95.0327 242.66 96.4985 243.707 96.4985C244.754 96.4985 245.591 95.0327 245.591 93.2528C245.591 91.4729 244.754 90.0071 243.707 90.0071C242.66 90.0071 241.822 91.438 241.822 93.2528Z" fill="#1A2E35"/>
<path d="M222.173 93.2528C222.173 95.0327 223.011 96.4985 224.058 96.4985C225.105 96.4985 225.943 95.0327 225.943 93.2528C225.943 91.4729 225.105 90.0071 224.058 90.0071C223.011 90.0071 222.173 91.438 222.173 93.2528Z" fill="#1A2E35"/>
<path d="M232.992 130.666V138.483L241.892 137.436C248.488 131.852 254.595 121.836 255.049 121.068C247.545 132.271 232.992 130.666 232.992 130.666Z" fill="#1A2E35" stroke="#1A2E35" stroke-miterlimit="10" stroke-linecap="round" stroke-linejoin="round"/>
<path d="M289.007 155.479C289.007 155.479 314.554 247.72 316.403 256.969C318.253 266.217 322.86 307.364 322.86 307.364L324.256 319.37H309.004L312.25 301.815L294.207 241.682C294.207 241.682 287.75 197.29 287.262 184.83C286.773 172.371 289.007 155.479 289.007 155.479Z" fill="white" stroke="#1A2E35" stroke-miterlimit="10" stroke-linecap="round" stroke-linejoin="round"/>
<path d="M289.007 155.479C289.007 155.479 286.808 172.371 287.262 184.865C287.716 197.359 294.207 241.682 294.207 241.682L301.292 265.345L317.346 262.797C316.997 260.319 316.648 258.26 316.369 256.899C314.554 247.72 289.007 155.479 289.007 155.479Z" fill="#E79FB0" stroke="black" stroke-miterlimit="10"/>
<path d="M231.352 153.874L253.548 177.92L270.649 153.42L261.401 146.929L236.447 145.533L231.352 153.874Z" fill="white" stroke="#1A2E35" stroke-miterlimit="10" stroke-linecap="round" stroke-linejoin="round"/>
<path d="M260.005 151.082L274.803 155.27L296.51 284.679L300.21 319.823H201.757L212.855 160.784L233.341 148.779L260.005 151.082Z" fill="#405070" stroke="black" stroke-miterlimit="10"/>
<path d="M232.853 209.33L267.543 210.726" stroke="#1A2E35" stroke-miterlimit="10" stroke-linecap="round" stroke-linejoin="round"/>
<path d="M250.896 209.819L249.5 228.769" stroke="#1A2E35" stroke-miterlimit="10" stroke-linecap="round" stroke-linejoin="round"/>
<path d="M254.596 211.18L254.142 245.87" stroke="#1A2E35" stroke-miterlimit="10" stroke-linecap="round" stroke-linejoin="round"/>
<path d="M258.295 220.882L259.202 238.472" stroke="#1A2E35" stroke-miterlimit="10" stroke-linecap="round" stroke-linejoin="round"/>
<path d="M225.035 147.557C225.035 147.557 202.525 159.563 201.617 163.576C200.71 167.59 189.751 218.125 189.751 219.032C189.751 219.94 200.675 248.628 200.675 248.628L198.406 293.683C198.406 293.683 209.505 296.161 216.275 295.847C223.046 295.533 233.237 294.94 233.237 294.94L234.877 147.557H225.035Z" fill="#E79FB0" stroke="black" stroke-miterlimit="10"/>
<path d="M211.005 233.83L215.158 197.324" stroke="#1A2E35" stroke-miterlimit="10" stroke-linecap="round" stroke-linejoin="round"/>
<path d="M266.461 152.024L266.566 153.769L276.164 292.567L301.606 290.891L294.661 226.431C294.661 226.431 290.403 156.387 289.007 155.445C287.611 154.537 266.461 149.686 266.461 149.686V152.024Z" fill="#E79FB0" stroke="black" stroke-miterlimit="10"/>
<path d="M257.143 147.557L254.072 237.844L267.334 237.53L264.228 148.779L257.143 147.557Z" fill="#EAD6DB" stroke="black" stroke-miterlimit="10"/>
<path d="M257.143 147.557L263.32 244.928L282.411 244.614L269.777 148.465L257.143 147.557Z" fill="#EAD6DB" stroke="black" stroke-miterlimit="10"/>
<path d="M266.915 129.688C266.915 129.688 235.47 135.866 232.713 135.866C229.956 135.866 228.106 137.715 228.7 139.879C229.328 142.043 229.607 143.893 229.607 145.114C229.607 146.336 226.222 151.292 228.979 153.735C231.736 156.212 260.738 151.571 264.716 151.257C268.695 150.943 272.429 150.628 272.429 148.5C272.429 146.336 267.823 142.636 267.823 141.101C267.857 139.53 271.557 134.923 266.915 129.688Z" fill="#EAD6DB" stroke="black" stroke-miterlimit="10"/>
<path d="M211.145 228.281L187.413 169.405C187.413 169.405 184.028 160.156 181.236 157.678C178.479 155.2 175.372 153.351 173.523 151.501C171.673 149.651 171.359 145.324 170.137 149.965C168.916 154.572 173.837 157.992 173.837 157.992L176.908 163.227L157.19 159.528C157.19 159.528 147.034 154.607 146.091 156.771C145.184 158.935 150.419 160.784 154.712 164.17C159.039 167.555 161.482 170.626 168.567 173.104C175.652 175.582 181.201 180.503 181.201 180.503C181.201 180.503 182.736 243.078 186.436 245.836C190.135 248.593 202.769 255.991 207.376 249.849C212.087 243.707 212.087 238.157 211.145 228.281Z" fill="white" stroke="#1A2E35" stroke-miterlimit="10" stroke-linecap="round" stroke-linejoin="round"/>
<path d="M211.145 228.281L207.306 218.788L183.399 226.815C184.202 236.901 185.214 244.893 186.471 245.836C190.17 248.593 202.804 255.991 207.411 249.849C212.087 243.707 212.087 238.158 211.145 228.281Z" fill="#E79FB0" stroke="black" stroke-miterlimit="10"/>
<path d="M165.286 170.312C165.286 170.312 157.155 165.391 155.654 162.913C154.188 160.435 148.988 150.838 150.733 150.558C152.443 150.314 157.05 157.364 157.155 158.446C157.259 159.528 162.32 164.379 162.32 164.379" fill="white"/>
<path d="M165.286 170.312C165.286 170.312 157.155 165.391 155.654 162.913C154.188 160.435 148.988 150.838 150.733 150.558C152.443 150.314 157.05 157.364 157.155 158.446C157.259 159.528 162.32 164.379 162.32 164.379" stroke="#1A2E35" stroke-miterlimit="10" stroke-linecap="round" stroke-linejoin="round"/>
<path d="M166.019 172.301C166.019 172.301 162.808 170.312 160.854 165.88C158.865 161.447 156.666 155.27 156.666 151.815C156.666 148.36 158.655 149.581 159.388 152.059C160.121 154.537 162.599 160.435 163.576 161.692C164.553 162.913 168.009 167.869 168.009 167.869" fill="white"/>
<path d="M166.019 172.301C166.019 172.301 162.808 170.312 160.854 165.88C158.865 161.447 156.666 155.27 156.666 151.815C156.666 148.36 158.655 149.581 159.388 152.059C160.121 154.537 162.599 160.435 163.576 161.692C164.553 162.913 168.009 167.869 168.009 167.869" stroke="#1A2E35" stroke-miterlimit="10" stroke-linecap="round" stroke-linejoin="round"/>
<path d="M185.005 174.744C184.761 174.011 181.55 168.811 180.573 168.567C179.595 168.323 172.93 170.033 172.93 170.033L168.497 166.578C168.497 166.578 168.253 159.179 168.253 156.457C168.253 153.734 164.554 160.4 164.309 164.833C164.065 169.265 167.52 173.976 167.52 173.976C167.52 173.976 171.464 174.709 172.197 174.954C172.93 175.198 181.271 180.468 181.271 180.468" fill="white"/>
<path d="M185.005 174.744C184.761 174.011 181.55 168.811 180.573 168.567C179.595 168.323 172.93 170.033 172.93 170.033L168.497 166.578C168.497 166.578 168.253 159.179 168.253 156.457C168.253 153.734 164.554 160.4 164.309 164.833C164.065 169.265 167.52 173.976 167.52 173.976C167.52 173.976 171.464 174.709 172.197 174.954C172.93 175.198 181.271 180.468 181.271 180.468" stroke="#1A2E35" stroke-miterlimit="10" stroke-linecap="round" stroke-linejoin="round"/>
<path d="M44.6022 31.759C43.6599 31.759 42.8921 32.5978 42.8921 33.6271V121.847C42.8921 122.876 43.6599 123.715 44.6022 123.715H128.362L162.599 147.733C162.669 147.771 162.704 147.809 162.774 147.809C162.808 147.848 162.878 147.848 162.913 147.886C163.123 147.962 163.297 148 163.506 148C163.716 148 163.89 147.962 164.1 147.886C164.135 147.886 164.204 147.848 164.239 147.848C164.414 147.771 164.553 147.657 164.693 147.504C164.728 147.466 164.763 147.428 164.798 147.39C164.868 147.314 164.902 147.238 164.972 147.161C165.007 147.123 165.007 147.085 165.007 147.047C165.077 146.933 165.112 146.78 165.147 146.666C165.182 146.551 165.217 146.437 165.217 146.323C165.217 146.246 165.251 146.208 165.251 146.17V33.6271C165.251 32.5978 164.484 31.759 163.541 31.759H44.6022Z" fill="#405070"/>
<path d="M161.796 35.4951V142.739L129.793 120.284C129.758 120.245 129.688 120.245 129.653 120.245C129.549 120.169 129.444 120.131 129.339 120.093C129.235 120.055 129.13 120.017 128.99 120.017C128.955 120.017 128.886 119.979 128.851 119.979H46.3123V35.4951H161.796Z" fill="white"/>
</svg>
