<svg width="81" height="89" viewBox="0 0 81 89" fill="none" xmlns="http://www.w3.org/2000/svg">
<path d="M43.2321 69.5255V59.937H35.6104V69.5248C25.0185 71.3121 16.9548 80.2878 16.9548 88.7958C17.4326 88.318 62.3617 88.318 61.8839 88.7958C61.8839 80.2885 53.8217 71.3144 43.2321 69.5255Z" fill="#DA665C"/>
<path d="M48.1882 70.9658C47.2451 73.4812 43.6353 75.3547 39.3232 75.3547C35.0378 75.3547 31.4457 73.5045 30.4755 71.0128C22.3914 74.345 16.7268 81.838 16.7268 88.9999C17.5353 88.8118 61.9282 88.8118 62.0475 88.9999C62.0475 81.8048 56.3317 74.2746 48.1882 70.9658Z" fill="#47BC66"/>
<g opacity="0.4">
<path d="M51.7443 72.7664C50.6236 72.0787 49.4348 71.4722 48.1884 70.9658C47.2452 73.4812 43.6355 75.3547 39.3233 75.3547C35.0379 75.3547 31.4459 73.5045 30.4756 71.0128C29.0738 71.5907 27.7466 72.2961 26.5073 73.1008C27.1145 75.6756 29.7766 82.8812 40.0017 77.7561C40.0017 77.7561 49.1063 84.023 51.7443 72.7664Z" fill="#FBBC05"/>
</g>
<path d="M25.8511 82.3752L24.0596 88.4473H27.3977L25.8511 82.3752Z" fill="#34A853"/>
<path d="M52.9297 82.3752L54.7212 88.4473H51.3831L52.9297 82.3752Z" fill="#34A853"/>
<path d="M43.232 59.937H35.6104V66.0512H43.232V59.937Z" fill="#C95E55"/>
<path d="M19.9107 53.2937C19.9107 53.2937 21.1526 58.2616 16.1847 60.1246C16.1847 60.1246 20.5318 66.9555 13.7006 67.5766C13.7006 67.5766 16.1847 72.5445 11.2165 73.1656C6.2482 73.7867 7.49045 70.0607 7.49045 70.0607C7.49045 70.0607 3.14333 71.3026 2.52258 68.8188C1.90183 66.3351 3.14371 65.0928 3.14371 65.0928C3.14371 65.0928 0.0388321 64.4717 0.0388321 62.6087C0.0388321 60.7457 -0.582293 58.2616 3.14371 57.0197C3.14371 57.0197 1.28071 55.1567 1.28071 53.9148C1.28071 52.673 2.52258 52.0518 4.38558 52.0518C4.38558 52.0518 3.14371 50.1888 3.76445 48.947C4.38558 47.7051 6.24858 48.3259 6.24858 48.3259C6.24858 48.3259 5.0067 44.5999 8.7327 44.5999C12.4587 44.5999 17.4266 46.4629 17.4266 46.4629L19.9107 53.2937Z" fill="#133D1E"/>
<path d="M12.3472 41.123C12.3472 41.123 10.5952 39.6321 9.97443 40.2532C9.35331 40.8743 8.73256 42.1162 8.73256 42.7373C8.73256 43.3584 6.86956 44.6003 8.11144 45.8422C9.35331 47.0841 11.8374 50.1893 16.8053 48.9471C21.7732 47.7048 16.8053 42.1162 16.8053 42.1162L12.3472 41.123Z" fill="#FBBC05"/>
<path d="M60.3318 53.2937C60.3318 53.2937 59.0899 58.2616 64.0578 60.1246C64.0578 60.1246 59.7107 66.9555 66.5419 67.5766C66.5419 67.5766 64.0578 72.5445 69.0261 73.1656C73.9943 73.7867 72.7521 70.0607 72.7521 70.0607C72.7521 70.0607 77.0992 71.3026 77.7199 68.8188C78.3407 66.3351 77.0988 65.0928 77.0988 65.0928C77.0988 65.0928 80.2037 64.4717 80.2037 62.6087C80.2037 60.7457 80.8248 58.2616 77.0988 57.0197C77.0988 57.0197 78.9618 55.1567 78.9618 53.9148C78.9618 52.673 77.7199 52.0518 75.8569 52.0518C75.8569 52.0518 77.0988 50.1888 76.4781 48.947C75.8573 47.7051 73.9939 48.3259 73.9939 48.3259C73.9939 48.3259 75.2358 44.5999 71.5098 44.5999C67.7838 44.5999 62.8159 46.4629 62.8159 46.4629L60.3318 53.2937Z" fill="#133D1E"/>
<path d="M67.895 41.123C67.895 41.123 69.6471 39.6321 70.2678 40.2532C70.8886 40.8743 71.5097 42.1162 71.5097 42.7373C71.5097 43.3584 73.3727 44.6003 72.1308 45.8422C70.8889 47.0841 68.4048 50.1893 63.4369 48.9471C58.4691 47.7048 63.4369 42.1162 63.4369 42.1162L67.895 41.123Z" fill="#FBBC05"/>
<path d="M66.839 40.6369C68.7806 57.118 56.5839 63.9819 40.1209 63.9819C23.653 63.9819 10.7199 57.118 12.674 40.6369C14.6867 24.1558 21.1075 12.4278 39.7567 12.3428C59.4829 12.2529 64.8263 24.1558 66.839 40.6369Z" fill="#DA665C"/>
<path d="M41.0979 42.5219C41.0979 41.7811 40.4975 41.1807 39.7567 41.1807C39.016 41.1807 38.4155 41.7811 38.4155 42.5219" stroke="#8B1107" stroke-width="2" stroke-miterlimit="10" stroke-linecap="round" stroke-linejoin="round"/>
<path d="M37.7185 15.486C37.7185 15.486 25.7143 10.151 17.0449 26.1565C13.0435 33.4923 13.0435 38.8277 13.0435 38.8277L8.3751 41.4954C8.3751 41.4954 5.70739 32.159 8.3751 22.1555C11.0428 12.152 19.7122 2.14859 28.382 0.814916C37.0518 -0.518753 38.3855 1.48194 38.3855 1.48194C38.3855 1.48194 43.7205 -1.85242 52.3903 1.48194C61.0601 4.8163 69.7295 13.4861 71.0632 21.4889C72.3969 29.4916 70.3962 40.1617 70.3962 40.1617L66.6307 39.3405C66.6307 39.3405 65.7278 28.8242 60.3927 21.4885C55.0577 14.1524 46.3879 13.4853 37.7185 15.486Z" fill="#133D1E"/>
<path d="M8.84938 39.0652C7.27042 40.3044 6.99466 42.5892 8.2339 44.1681C9.02206 45.1726 11.0638 45.869 12.5931 46.1278C12.4219 44.4307 12.4407 42.6031 12.6739 40.637C12.7496 40.0177 12.844 39.4075 12.9475 38.8015C11.6947 38.0584 10.0642 38.1119 8.84938 39.0652ZM71.1334 39.0652C69.7787 38.002 67.9063 38.0569 66.6185 39.0904C66.7017 39.6013 66.7754 40.1167 66.839 40.637C67.0737 42.629 67.0974 44.4774 66.9364 46.1936C68.486 46.0089 70.8795 45.2761 71.7485 44.1685C72.9882 42.5891 72.7124 40.3044 71.1334 39.0652Z" fill="#D7665D"/>
<path d="M39.5195 55.1127C41.9118 55.1127 43.9445 53.8118 44.68 52.0015C44.9715 51.2844 44.4091 50.5042 43.6352 50.5042H35.4037C34.6295 50.5042 34.0674 51.2844 34.359 52.0015C35.0945 53.8118 37.1272 55.1127 39.5195 55.1127Z" fill="#EA4335"/>
<path d="M23.394 28.6855C23.9648 27.9752 24.8214 27.499 25.8022 27.4384C26.2642 27.4098 26.7103 27.4764 27.1212 27.6212" stroke="#133D1E" stroke-width="3" stroke-miterlimit="10" stroke-linecap="round" stroke-linejoin="round"/>
<path d="M55.7838 28.6855C55.2131 27.9752 54.3564 27.499 53.3756 27.4384C52.9136 27.4098 52.4675 27.4764 52.0566 27.6212" stroke="#133D1E" stroke-width="3" stroke-miterlimit="10" stroke-linecap="round" stroke-linejoin="round"/>
<path d="M21.6062 49.5787C24.2923 49.483 26.4164 47.9051 26.3504 46.0544C26.2845 44.2036 24.0536 42.7809 21.3675 42.8766C18.6814 42.9722 16.5573 44.5501 16.6233 46.4008C16.6892 48.2516 18.9201 49.6743 21.6062 49.5787Z" fill="#D66056"/>
<path d="M18.9667 46.5454C19.7074 46.5454 20.3079 45.945 20.3079 45.2042C20.3079 44.4635 19.7074 43.863 18.9667 43.863C18.226 43.863 17.6255 44.4635 17.6255 45.2042C17.6255 45.945 18.226 46.5454 18.9667 46.5454Z" fill="#D66056"/>
<path d="M62.5643 46.3973C62.6302 44.5466 60.5062 42.9687 57.8201 42.873C55.134 42.7773 52.9031 44.2001 52.8371 46.0508C52.7712 47.9015 54.8953 49.4794 57.5814 49.5751C60.2674 49.6708 62.4984 48.248 62.5643 46.3973Z" fill="#D66056"/>
<path opacity="0.2" d="M60.2206 46.5454C60.9613 46.5454 61.5618 45.945 61.5618 45.2042C61.5618 44.4635 60.9613 43.863 60.2206 43.863C59.4799 43.863 58.8794 44.4635 58.8794 45.2042C58.8794 45.945 59.4799 46.5454 60.2206 46.5454Z" fill="#4285F4"/>
<path opacity="0.2" d="M18.9667 46.5454C19.7074 46.5454 20.3079 45.945 20.3079 45.2042C20.3079 44.4635 19.7074 43.863 18.9667 43.863C18.226 43.863 17.6255 44.4635 17.6255 45.2042C17.6255 45.945 18.226 46.5454 18.9667 46.5454Z" fill="#4285F4"/>
<path d="M23.4819 38.2625C23.825 37.293 24.7498 36.5989 25.8366 36.5989C26.8708 36.5989 27.7583 37.2279 28.1376 38.124M51.9815 38.2625C52.3246 37.293 53.2493 36.5989 54.3362 36.5989C55.3704 36.5989 56.2578 37.2279 56.6371 38.124" stroke="#132718" stroke-width="3" stroke-miterlimit="10" stroke-linecap="round" stroke-linejoin="round"/>
</svg>
