<svg width="94" height="87" viewBox="0 0 94 87" fill="none" xmlns="http://www.w3.org/2000/svg">
<path d="M88.6527 51.0618C88.2843 50.9856 87.9285 51.227 87.8523 51.5827C85.9338 60.832 80.8391 69.2554 73.4956 75.3031C66.0631 81.4396 56.6487 84.8064 46.9928 84.8064C35.8505 84.8064 25.3688 80.4613 17.4917 72.5842C9.61455 64.707 5.26942 54.2254 5.26942 43.083C5.26942 42.2191 5.29483 41.3424 5.35836 40.4785L8.44569 43.5658C8.57274 43.6929 8.75061 43.7691 8.92848 43.7691C9.10635 43.7691 9.27152 43.7056 9.41127 43.5658C9.67808 43.299 9.67808 42.8797 9.41127 42.6129L5.28213 38.4838C5.01532 38.217 4.59606 38.217 4.32925 38.4838L0.200105 42.6129C-0.0667016 42.8797 -0.0667016 43.299 0.200105 43.5658C0.466911 43.8326 0.886178 43.8326 1.15298 43.5658L3.99892 40.7199C3.9608 41.5076 3.93539 42.2953 3.93539 43.083C3.93539 54.5938 8.42028 65.4058 16.5515 73.5498C24.6828 81.681 35.5075 86.1659 47.0182 86.1659C56.979 86.1659 66.6984 82.6847 74.3849 76.3576C81.9317 70.1194 87.2044 61.4164 89.1736 51.8622C89.2499 51.4938 89.0212 51.138 88.6527 51.0618Z" fill="#414F70"/>
<path d="M93.811 42.6002C93.5442 42.3334 93.125 42.3334 92.8582 42.6002L90.0122 45.4461C90.0503 44.6584 90.0758 43.8707 90.0758 43.083C90.0758 31.5722 85.5909 20.7602 77.4596 12.6162C69.3284 4.48501 58.5037 0.00012207 46.9929 0.00012207C37.0575 0.00012207 27.3763 3.4559 19.7024 9.7449C12.1429 15.945 6.87031 24.5971 4.8502 34.1005C4.77397 34.469 5.00267 34.8247 5.37111 34.9009C5.73956 34.9772 6.0953 34.7485 6.17153 34.38C8.12811 25.1688 13.2355 16.7962 20.5537 10.7867C27.9734 4.70099 37.3625 1.34686 46.9802 1.34686C58.1225 1.34686 68.6042 5.69199 76.4813 13.5691C84.3585 21.4463 88.7036 31.9279 88.7036 43.0703C88.7036 43.9342 88.6782 44.8109 88.6147 45.6748L85.5273 42.5875C85.2605 42.3207 84.8413 42.3207 84.5745 42.5875C84.3077 42.8543 84.3077 43.2736 84.5745 43.5404L88.7036 47.6695C88.8307 47.7966 89.0085 47.8728 89.1864 47.8728C89.3643 47.8728 89.5294 47.8093 89.6692 47.6695L93.7983 43.5404C94.0651 43.299 94.0651 42.867 93.811 42.6002Z" fill="#414F70"/>
<path d="M46.9928 34.6975C42.3681 34.6975 38.5947 38.4582 38.5947 43.0828C38.5947 47.7075 42.3554 51.4682 46.9928 51.4682C51.6301 51.4682 55.3908 47.7075 55.3908 43.0828C55.3908 38.4582 51.6174 34.6975 46.9928 34.6975Z" fill="#414F70"/>
<path d="M70.6243 67.7943C70.3574 68.0484 70.3447 68.4803 70.5988 68.7472C70.8529 69.014 71.2849 69.0267 71.5517 68.7726C78.6284 62.0008 82.5289 52.8785 82.5289 43.0829C82.5289 23.479 66.5841 7.53418 46.9801 7.53418C27.3762 7.53418 11.4441 23.479 11.4441 43.0829C11.4441 62.6868 27.3889 78.6317 46.9928 78.6317C54.2093 78.6317 61.159 76.4845 67.0923 72.4062C67.3972 72.1902 67.4734 71.771 67.2701 71.466C67.0668 71.1611 66.6349 71.0849 66.3299 71.2882C64.9578 72.2283 63.5348 73.0542 62.061 73.7784L51.9478 53.158C51.7699 52.8023 51.338 52.6244 50.9695 52.7769C49.7498 53.2851 48.4031 53.5519 46.9928 53.5519C45.4809 53.5519 44.0453 53.2343 42.7494 52.6498C42.3809 52.4847 41.9489 52.6498 41.7711 53.0056L31.0861 73.321C20.2233 67.591 12.8035 56.1691 12.8035 43.0702C12.8035 24.2159 28.1385 8.88092 46.9928 8.88092V31.839C46.9928 32.2455 47.3105 32.5759 47.717 32.614C52.4179 32.9316 56.2548 36.3493 57.2331 40.8341C57.3221 41.2407 57.6905 41.5075 58.0971 41.444L80.8137 38.1153C81.0551 39.7415 81.1695 41.3932 81.1695 43.0829C81.1822 52.4974 77.4342 61.2766 70.6243 67.7943Z" fill="white"/>
<path opacity="0.31" d="M49.9404 38.2804C46.1416 38.5218 42.6858 41.9649 42.2284 45.9924C42.1268 46.9326 42.1014 47.5932 42.419 48.4318C40.9071 47.1359 40.2592 45.4842 40.2592 43.3498C40.2592 39.462 43.4227 36.3112 47.2978 36.3112C49.4322 36.3112 51.0458 37.0099 52.3417 38.5218C51.4904 38.1915 50.8933 38.2169 49.9404 38.2804Z" fill="black"/>
<path opacity="0.56" d="M54.9462 31.6103H54.8191C53.3708 31.6103 52.2019 30.4415 52.2019 28.9931C52.2019 28.5738 52.3035 28.1673 52.4941 27.7861L54.6159 23.6697C54.7302 23.4537 55.0351 23.4537 55.1368 23.6697L57.2585 27.7861C57.4491 28.1546 57.5507 28.5738 57.5507 28.9931C57.5634 30.4415 56.3946 31.6103 54.9462 31.6103Z" fill="#070808"/>
<path opacity="0.56" d="M61.9086 25.207H61.7943C60.4094 25.207 59.2787 24.0763 59.2787 22.6914C59.2787 22.2849 59.3803 21.891 59.5582 21.5353L61.6037 17.584C61.7054 17.3807 61.9976 17.3807 62.1119 17.584L64.1447 21.548C64.3353 21.9037 64.4242 22.2976 64.4242 22.7041C64.4242 24.089 63.2935 25.207 61.9086 25.207Z" fill="#070808"/>
<path opacity="0.56" d="M67.0541 36.2986H66.9398C65.5549 36.2986 64.4242 35.1678 64.4242 33.783C64.4242 33.3764 64.5258 32.9825 64.7037 32.6268L66.7492 28.6755C66.8509 28.4723 67.1431 28.4723 67.2574 28.6755L69.3029 32.6268C69.4935 32.9825 69.5824 33.3764 69.5824 33.783C69.5697 35.1678 68.4517 36.2986 67.0541 36.2986Z" fill="#070808"/>
<path d="M54.7683 31.2164H54.6413C53.1929 31.2164 52.024 30.0476 52.024 28.5992C52.024 28.1799 52.1257 27.7733 52.3163 27.3922L54.438 23.2758C54.5524 23.0598 54.8573 23.0598 54.9589 23.2758L57.0807 27.3922C57.2712 27.7606 57.3729 28.1799 57.3729 28.5992C57.3856 30.0476 56.2167 31.2164 54.7683 31.2164Z" fill="#E59EAF"/>
<path d="M61.7308 24.8131H61.6164C60.2316 24.8131 59.1008 23.6823 59.1008 22.2975C59.1008 21.8909 59.2025 21.4971 59.3803 21.1413L61.4259 17.1901C61.5275 16.9868 61.8197 16.9868 61.9341 17.1901L63.9796 21.1413C64.1702 21.4971 64.2591 21.8909 64.2591 22.2975C64.2464 23.695 63.1156 24.8131 61.7308 24.8131Z" fill="#E59EAF"/>
<path d="M66.8763 35.9046H66.7619C65.3771 35.9046 64.2463 34.7739 64.2463 33.389C64.2463 32.9825 64.348 32.5886 64.5259 32.2329L66.5714 28.2816C66.673 28.0783 66.9652 28.0783 67.0796 28.2816L69.1251 32.2329C69.3157 32.5886 69.4046 32.9825 69.4046 33.389C69.3919 34.7739 68.2611 35.9046 66.8763 35.9046Z" fill="#E59EAF"/>
<path d="M42.203 64.2115C42.3681 62.8775 43.537 61.8992 44.871 61.95C45.3157 61.9754 45.7477 62.1025 46.1288 62.3312L46.7641 62.725C46.9039 62.814 47.069 62.814 47.2088 62.725L47.844 62.3312C48.2252 62.0898 48.6572 61.9627 49.1018 61.95C50.4486 61.8992 51.6047 62.8775 51.7699 64.2115C51.8842 65.1517 51.6301 66.1173 51.0457 66.8542C49.8895 68.3279 48.6699 69.5857 47.3612 70.6022C47.1452 70.7673 46.8403 70.7673 46.6243 70.6022C45.3157 69.5985 44.0833 68.3279 42.9399 66.8542C42.3427 66.1173 42.0886 65.1644 42.203 64.2115Z" fill="#414F70"/>
<path d="M49.6482 38.0264C45.392 38.0264 41.9362 41.4822 41.9362 45.7384C41.9362 46.6786 42.1141 47.5933 42.419 48.4319C40.9071 47.1359 39.9542 45.2302 39.9542 43.0957C39.9542 39.208 43.1178 36.0571 46.9928 36.0571C49.1273 36.0571 51.0457 37.01 52.329 38.5219C51.4904 38.1916 50.5884 38.0264 49.6482 38.0264Z" fill="#DFECF9"/>
</svg>
