<svg width="64" height="64" viewBox="0 0 64 64" fill="none" xmlns="http://www.w3.org/2000/svg">
<path d="M39.6351 12.6145C38.4575 13.0881 37.8111 14.9697 36.9279 17.3761C35.9295 20.1985 34.6367 23.7249 31.8143 27.0785C31.4047 27.5521 22.1695 38.2529 17.8751 39.9553C16.6975 40.4289 15.9359 41.2481 15.7567 42.2465C15.5199 43.4817 15.9935 44.8321 17.1711 46.0097C18.1695 47.0657 19.6415 48.0065 20.9919 48.5377C24.3455 49.8881 26.8735 48.8897 28.5183 45.6001C32.2815 37.8433 43.4559 25.6065 46.3423 22.9633H46.3999C46.4575 22.9633 49.9903 20.0257 48.3967 16.8449C47.6351 15.2577 45.9263 13.7857 43.9295 12.9601L44.4031 11.8401L43.9295 12.9601C42.3423 12.2561 40.7551 12.1409 39.6351 12.6145Z" fill="#B1DEF6"/>
<path d="M55.5136 13.0815C52.6336 7.1999 43.9296 2.7903 38.2208 5.1391C33.5744 7.0783 32.6912 14.1951 30.6944 19.5455C29.8688 18.4895 28.6976 17.5487 27.6352 17.7791C25.5168 18.3103 20.8704 22.8351 17.9904 26.3039C15.4048 29.4783 18.816 31.5391 20.5184 32.3647C17.6384 34.8927 14.5792 37.0111 11.9936 38.0095C6.2272 40.3647 5.4656 46.8287 10.112 51.5391C14.7584 56.2495 26.464 62.5343 32.4032 50.3039C33.5232 48.0127 34.6944 45.8367 35.9296 43.8335C37.4016 45.4783 41.2224 49.0111 44.224 45.3055C47.52 41.3631 51.3408 35.1871 51.2832 32.7807C51.2256 31.3663 49.2224 30.2527 47.52 29.6063C48.9344 28.1919 50.3424 26.9567 51.5776 25.7855C51.6352 25.8431 58.8672 19.9615 55.5136 13.0815ZM47.1616 23.8463C43.9296 26.7839 33.1072 38.7839 29.5808 46.1375C27.2896 50.8415 23.584 50.9631 20.5248 49.7279C18.8224 49.0239 17.2928 47.9039 16.288 46.9055C13.5232 44.0831 13.9328 40.2623 17.4656 38.8479C20.9344 37.4335 28.5248 29.0239 30.9312 26.2591C36.224 20.1407 35.8144 12.9087 39.168 11.4943C40.6976 10.8479 42.5792 11.0207 44.4032 11.7887C46.5792 12.6719 48.5184 14.3167 49.4592 16.2559C51.5136 20.3135 47.1616 23.8463 47.1616 23.8463Z" fill="white"/>
<path d="M37.9903 29.376C36.0511 31.4368 32.9343 35.0208 30.8735 38.1952C30.1695 39.3152 28.6975 39.6096 27.5775 38.8992C27.3983 38.784 27.2255 38.6624 27.1039 38.5472C25.9263 37.7216 25.7535 36.0192 26.7519 34.9568C28.7487 32.8384 32.3391 28.96 34.3359 26.3104C35.1615 25.1904 36.8063 25.0176 37.8623 25.9584C38.8095 26.9056 38.8735 28.3712 37.9903 29.376Z" fill="#47BAEA"/>
</svg>
